<?xml version="1.0" standalone="no"?>
<!DOCTYPE svg PUBLIC "-//W3C//DTD SVG 20010904//EN"
 "http://www.w3.org/TR/2001/REC-SVG-20010904/DTD/svg10.dtd">
<svg version="1.0" xmlns="http://www.w3.org/2000/svg"
 width="16.000000pt" height="16.000000pt" viewBox="0 0 16.000000 16.000000"
 preserveAspectRatio="xMidYMid meet">
<metadata>
Created by potrace 1.11, written by Peter Selinger 2001-2013
</metadata>
<g transform="translate(0.000000,16.000000) scale(0.006015,-0.006015)"
fill="#000000" stroke="none">
<path d="M945 2381 c-126 -22 -189 -43 -290 -93 -283 -143 -482 -378 -579
-687 -36 -112 -46 -190 -46 -354 0 -179 28 -323 93 -469 42 -95 174 -288 196
-288 5 0 58 54 120 119 l111 119 -40 59 c-51 77 -94 179 -126 299 -20 77 -25
119 -26 222 -2 487 294 876 752 987 159 38 339 30 489 -24 45 -15 81 -27 81
-25 0 10 -120 66 -195 92 -183 62 -353 76 -540 43z"/>
<path d="M1527 2181 c64 -38 165 -130 204 -188 l30 -43 92 0 92 1 -60 55 c-95
89 -260 176 -375 198 -33 7 -33 6 17 -23z"/>
<path d="M1030 2172 c-113 -41 -236 -118 -304 -191 l-30 -31 95 0 95 0 19 33
c31 53 136 157 190 188 64 37 35 37 -65 1z"/>
<path d="M1199 2191 c-71 -22 -167 -91 -229 -163 -27 -33 -50 -64 -50 -69 0
-5 41 -9 90 -9 57 0 90 4 90 11 0 28 65 161 96 198 20 22 34 41 32 40 -2 0
-15 -4 -29 -8z"/>
<path d="M1238 2167 c-34 -34 -92 -141 -104 -189 l-6 -28 91 0 91 0 0 125 c0
118 -1 125 -20 125 -10 0 -34 -15 -52 -33z"/>
<path d="M1330 2075 l0 -125 90 0 c50 0 90 4 90 9 0 44 -103 222 -136 235 -42
16 -44 12 -44 -119z"/>
<path d="M1433 2173 c26 -30 86 -142 97 -184 l11 -39 95 0 96 0 -30 38 c-82
102 -213 202 -267 202 -17 0 -17 -1 -2 -17z"/>
<path d="M2206 2045 l-117 -124 41 -61 c57 -84 97 -184 127 -314 23 -100 25
-125 20 -256 -7 -177 -28 -265 -97 -406 -103 -211 -247 -357 -457 -462 -205
-104 -483 -114 -738 -28 -43 15 81 -47 149 -74 111 -44 211 -61 371 -61 222 0
364 36 540 138 117 67 264 200 355 323 65 86 147 263 175 373 49 197 49 435
-1 612 -41 147 -136 329 -227 438 l-23 27 -118 -125z"/>
<path d="M1872 1922 c-51 -1 -92 -6 -90 -10 2 -4 16 -33 31 -64 l27 -58 110 0
111 0 -32 48 c-64 93 -53 87 -157 84z"/>
<path d="M634 1873 c-21 -27 -42 -54 -47 -60 -7 -10 15 -13 105 -13 l115 0 26
60 26 60 -94 0 -94 0 -37 -47z"/>
<path d="M877 1897 c-9 -13 -22 -40 -30 -59 l-15 -35 76 -7 c130 -11 141 -9
152 20 6 14 13 43 16 65 l7 39 -96 0 c-88 0 -96 -2 -110 -23z"/>
<path d="M1107 1903 c-3 -10 -8 -31 -12 -48 -3 -16 -8 -38 -11 -48 -5 -16 3
-17 108 -15 l113 3 3 63 3 62 -100 0 c-86 0 -100 -2 -104 -17z"/>
<path d="M1330 1855 l0 -65 111 0 112 0 -7 33 c-4 17 -10 47 -13 65 l-6 32
-98 0 -99 0 0 -65z"/>
<path d="M1560 1912 c0 -5 5 -34 11 -65 l12 -57 113 0 c63 0 114 2 114 5 0 3
-14 32 -30 65 l-30 60 -95 0 c-52 0 -95 -4 -95 -8z"/>
<path d="M490 1660 c0 -6 11 -15 25 -20 13 -5 27 -20 29 -32 3 -13 7 -120 8
-238 3 -177 6 -220 20 -245 60 -110 179 -125 282 -35 l34 31 7 -23 c4 -13 17
-33 28 -45 19 -21 30 -23 119 -23 59 0 98 4 98 10 0 6 -5 10 -10 10 -6 0 -22
11 -35 25 l-25 24 0 261 0 261 -25 24 c-37 38 -95 35 -129 -6 l-26 -31 0 -208
0 -208 -40 -36 c-22 -20 -51 -36 -64 -36 -47 0 -51 17 -54 264 -5 296 0 286
-143 286 -61 0 -99 -4 -99 -10z"/>
<path d="M1320 1661 c-101 -31 -177 -123 -195 -237 -15 -91 36 -238 108 -312
52 -54 78 -68 142 -76 88 -12 191 35 235 106 14 24 16 36 8 54 l-11 23 -32
-25 c-37 -28 -100 -32 -143 -10 -90 48 -182 216 -182 334 0 33 6 49 25 68 14
14 33 24 43 22 9 -2 33 -30 52 -62 41 -67 67 -82 117 -65 56 18 70 77 32 131
-36 51 -123 72 -199 49z"/>
<path d="M1791 1654 c-25 -9 -55 -23 -67 -30 -35 -23 -74 -87 -95 -155 -17
-55 -18 -72 -9 -142 14 -98 44 -161 106 -219 58 -54 78 -65 136 -73 78 -11
154 17 210 77 42 44 78 118 78 160 0 17 -29 7 -35 -12 -4 -11 -23 -36 -42 -55
-30 -29 -43 -35 -80 -35 -24 0 -56 6 -72 14 -36 19 -105 95 -129 143 -54 105
-67 240 -26 270 33 24 56 11 92 -50 36 -62 66 -81 110 -71 63 15 80 69 42 132
-36 59 -127 78 -219 46z"/>
<path d="M595 843 c10 -16 29 -43 42 -60 l24 -33 95 0 c107 0 105 -3 63 83
l-19 37 -111 0 -111 0 17 -27z"/>
<path d="M860 810 l30 -60 95 0 c52 0 95 3 95 8 0 4 -6 30 -13 57 l-13 50
-112 3 -113 3 31 -61z"/>
<path d="M1097 810 l16 -61 96 3 96 3 3 58 3 57 -114 0 -115 0 15 -60z"/>
<path d="M1330 810 l0 -60 100 0 99 0 10 38 c22 92 34 82 -95 82 l-114 0 0
-60z"/>
<path d="M1571 826 c-20 -79 -23 -76 89 -76 55 0 100 2 100 4 0 2 11 29 25 60
l25 56 -114 0 -114 0 -11 -44z"/>
<path d="M1830 857 c0 -6 -11 -33 -25 -60 l-25 -47 99 0 100 0 41 60 41 60
-116 0 c-86 0 -115 -3 -115 -13z"/>
<path d="M731 684 c98 -103 241 -184 384 -218 23 -6 16 2 -32 34 -64 42 -136
116 -181 183 l-25 37 -90 0 -91 0 35 -36z"/>
<path d="M927 689 c34 -58 140 -156 204 -188 76 -38 101 -41 72 -8 -32 36 -65
96 -89 161 l-22 61 -92 3 -92 3 19 -32z"/>
<path d="M1123 706 c60 -155 109 -230 160 -242 l27 -6 0 131 0 131 -96 0 c-79
0 -95 -3 -91 -14z"/>
<path d="M1330 585 l0 -136 28 15 c52 27 110 108 141 199 l20 57 -95 0 -94 0
0 -135z"/>
<path d="M1541 698 c-41 -106 -57 -139 -89 -182 l-36 -49 29 7 c55 13 137 71
202 141 100 108 100 105 -7 105 -85 0 -91 -1 -99 -22z"/>
<path d="M1731 669 c-38 -56 -111 -125 -186 -175 -27 -19 -48 -34 -45 -34 19
0 144 42 180 60 71 36 181 114 225 159 l39 41 -89 0 -90 -1 -34 -50z"/>
</g>
</svg>
